HIERARCHY
ROOT Hips
{
	OFFSET 0.000000 0.000000 0.000000 
	CHANNELS 6 Xposition Yposition Zposition Zrotation Yrotation Xrotation
	JOINT LeftUpLeg
	{
		OFFSET 1.363060 -1.794630 0.839290 
		CHANNELS 3 Zrotation Yrotation Xrotation
		JOINT LeftLeg
		{
			OFFSET 2.448110 -6.726130 0.000000 
			CHANNELS 3 Zrotation Yrotation Xrotation
			JOINT LeftFoot
			{
				OFFSET 2.562200 -7.039590 0.000000 
				CHANNELS 3 Zrotation Yrotation Xrotation
				JOINT LeftToeBase
				{
					OFFSET 0.157640 -0.433110 2.322550 
					CHANNELS 3 Zrotation Yrotation Xrotation
					End Site
					{
						OFFSET 0.000000 0.000000 0.000000 
					}
				}
			}
		}
	}
	JOINT RightUpLeg
	{
		OFFSET -1.305520 -1.794630 0.839290 
		CHANNELS 3 Zrotation Yrotation Xrotation
		JOINT RightLeg
		{
			OFFSET -2.542530 -6.985550 0.000000 
			CHANNELS 3 Zrotation Yrotation Xrotation
			JOINT RightFoot
			{
				OFFSET -2.568260 -7.056230 0.000000 
				CHANNELS 3 Zrotation Yrotation Xrotation
				JOINT RightToeBase
				{
					OFFSET -0.164730 -0.452590 2.363150 
					CHANNELS 3 Zrotation Yrotation Xrotation
					End Site
					{
						OFFSET 0.000000 0.000000 0.000000 
					}
				}
			}
		}
	}
	JOINT Spine
	{
		OFFSET 0.028270 2.035590 -0.193380 
		CHANNELS 3 Zrotation Yrotation Xrotation
		JOINT Spine1
		{
			OFFSET 0.056720 2.048850 -0.042750 
			CHANNELS 3 Zrotation Yrotation Xrotation
			JOINT Neck1
			{
				OFFSET -0.054170 1.746240 0.172020 
				CHANNELS 3 Zrotation Yrotation Xrotation
				JOINT Head
				{
					OFFSET 0.104070 1.761360 -0.123970 
					CHANNELS 3 Zrotation Yrotation Xrotation
					End Site
					{
						OFFSET 0.000000 0.000000 0.000000 
					}
				}
			}
			JOINT LeftArm
			{
				OFFSET 3.362410 1.200890 -0.311210 
				CHANNELS 3 Zrotation Yrotation Xrotation
				JOINT LeftForeArm
				{
					OFFSET 4.983000 -0.000000 -0.000000 
					CHANNELS 3 Zrotation Yrotation Xrotation
					JOINT LeftHand
					{
						OFFSET 3.483560 -0.000000 -0.000000 
						CHANNELS 3 Zrotation Yrotation Xrotation
						JOINT LeftHandIndex1
						{
							OFFSET 0.715260 -0.000000 -0.000000 
							CHANNELS 3 Zrotation Yrotation Xrotation
							End Site
							{
								OFFSET 0.000000 0.000000 0.000000 
							}
						}
					}
				}
			}
			JOINT RightArm
			{
				OFFSET -3.136600 1.374050 -0.404650 
				CHANNELS 3 Zrotation Yrotation Xrotation
				JOINT RightForeArm
				{
					OFFSET -5.241900 -0.000000 -0.000000 
					CHANNELS 3 Zrotation Yrotation Xrotation
					JOINT RightHand
					{
						OFFSET -3.444170 -0.000000 -0.000000 
						CHANNELS 3 Zrotation Yrotation Xrotation
						JOINT RightHandIndex1
						{
							OFFSET -0.622530 -0.000000 -0.000000 
							CHANNELS 3 Zrotation Yrotation Xrotation
							End Site
							{
								OFFSET 0.000000 0.000000 0.000000 
							}
						}
					}
				}
			}
		}
	}
}
MOTION
Frames: 12
Frame Time: 0.041667
-5.359530 18.130704 -22.792896 0.656393 -8.387190 5.634415 -36.154783 -11.002875 -19.046592 16.873387 18.008532 81.571528 1.007555 -3.220372 13.480644 1.419900 -7.535800 -21.312700 39.983239 25.682202 -27.139742 -9.885800 -14.323603 51.953498 -2.036615 2.409140 -34.272586 -0.568900 4.830400 -13.425500 -11.215637 -10.870725 7.299220 -23.952011 -4.769806 3.935077 -3.988855 30.139143 5.967205 -2.153300 14.355200 8.026600 -84.484318 17.697557 -6.662747 22.660907 -30.991905 -4.175298 1.928774 4.882660 -8.265721 -7.125000 0.000000 0.000000 96.624540 4.548856 45.033482 -15.929665 23.153011 -2.489223 -0.970466 1.117020 2.801146 7.125000 0.000000 0.000000 
-5.407356 18.124085 -22.702372 -0.017579 -8.012117 5.982626 -34.920811 -11.329444 -21.446182 17.652369 18.299971 83.888005 0.662472 -4.482071 12.704340 1.361500 -7.385600 -20.862800 41.006832 25.680796 -26.458170 -9.830726 -14.301933 51.760884 -2.210643 1.855591 -34.640095 -0.574800 4.855000 -13.495300 -11.045038 -10.879764 7.184842 -24.370773 -4.751457 3.868676 -3.677723 29.980770 5.634085 -2.164300 14.315400 7.804800 -84.533232 18.146051 -6.315847 22.533693 -30.726007 -4.093336 1.608856 4.934191 -8.296673 -7.125000 0.000000 0.000000 96.938065 4.750207 45.130631 -15.890486 23.114391 -2.477530 -0.938594 1.093954 3.758813 7.125000 0.000000 0.000000 
-5.451359 18.139095 -22.601874 -0.321523 -7.700044 6.169844 -34.161834 -11.364623 -23.574147 18.330686 18.522858 85.756738 0.108932 -6.222734 10.944020 1.727000 -8.272600 -23.545100 41.723651 25.113727 -25.669349 -9.779049 -14.184228 51.411384 -2.249719 1.941662 -34.858402 -0.576500 4.862300 -13.516200 -11.012413 -10.846416 7.054485 -24.749599 -4.724901 3.847720 -3.417530 29.843039 5.460982 -2.169500 14.278600 7.664900 -84.591804 18.622295 -6.139707 22.447223 -30.523624 -4.037242 1.353422 4.941009 -8.152284 -7.125000 0.000000 0.000000 97.278852 5.030813 45.534808 -15.763439 22.959051 -2.444300 -0.965718 1.059896 3.998779 7.125000 0.000000 0.000000 
-5.500489 18.154384 -22.509020 -0.411420 -7.282166 6.073324 -33.643610 -11.408177 -25.531372 18.968193 18.679351 87.637817 -0.012347 -7.341508 12.038110 1.800800 -8.438200 -24.053100 42.301929 24.544146 -24.636724 -9.759482 -14.070332 51.158887 -2.325446 1.889166 -35.172386 -0.517500 4.610600 -12.801300 -11.068295 -10.868473 7.020680 -24.939178 -4.757133 3.760787 -3.058235 29.736377 5.365224 -2.123900 14.254000 7.542500 -84.556964 18.916264 -5.968471 22.205246 -30.139732 -3.928431 1.200230 4.893351 -7.633758 -7.125000 0.000000 0.000000 97.538461 5.129898 46.061046 -15.794486 23.026517 -2.460760 -0.976595 1.084285 3.984035 7.125000 0.000000 0.000000 
-5.553722 18.161749 -22.429870 -0.533537 -6.832420 6.041866 -33.080420 -11.432177 -27.480197 19.528567 18.851325 89.296547 -0.309868 -8.124682 10.647733 1.744200 -8.311500 -23.664300 42.880286 24.181099 -23.733782 -9.733423 -13.981981 50.922630 -2.444965 1.612897 -35.527570 -0.458900 4.345300 -12.050300 -11.060524 -10.933067 7.031960 -24.952217 -4.813001 3.671622 -2.593495 29.657311 5.347945 -2.007600 14.233100 7.436900 -84.655530 19.103295 -5.907373 22.045281 -29.889650 -3.858716 1.072615 4.816463 -6.871913 -7.125000 0.000000 0.000000 97.621998 5.173665 46.767472 -16.016174 23.364340 -2.531790 -0.887689 1.184707 3.751682 7.125000 0.000000 0.000000 
-5.597446 18.169300 -22.341491 -0.484488 -6.403656 6.249924 -32.821973 -11.510859 -29.439164 20.005932 19.004361 90.729492 -0.464187 -8.664134 10.108076 1.496700 -7.727900 -21.890600 43.073193 23.738942 -23.320718 -9.721295 -13.917500 50.755352 -2.508431 1.583350 -35.862195 -0.451200 4.309400 -11.948700 -11.126398 -10.942315 7.000902 -25.138742 -4.812220 3.776837 -2.207756 29.513692 5.502132 -1.903000 14.176200 7.440800 -84.789006 19.376106 -6.001374 22.143813 -29.981520 -3.889617 0.941467 4.744361 -6.159187 -7.125000 0.000000 0.000000 97.872606 5.406622 47.131550 -16.264698 23.763742 -2.627888 -0.923028 1.170769 4.360742 7.125000 0.000000 0.000000 
-5.636881 18.183377 -22.246679 -0.298578 -6.107861 6.494302 -32.804569 -11.485623 -31.407635 20.411572 19.139481 91.979846 -0.448974 -8.789661 10.452247 1.290700 -7.198600 -20.305100 43.061954 23.423045 -23.031289 -9.717485 -13.866308 50.621008 -2.556773 1.535750 -36.111519 -0.452700 4.316500 -11.968900 -11.280333 -10.846425 6.864709 -25.376402 -4.773421 3.844201 -2.023339 29.270457 5.710909 -1.892600 14.077200 7.494700 -84.861276 19.687189 -6.230499 22.276647 -30.113324 -3.932537 0.826936 4.693337 -5.445753 -7.125000 0.000000 0.000000 98.315960 5.647008 46.775097 -16.472956 24.101653 -2.703636 -0.960392 1.215474 6.601578 7.125000 0.000000 0.000000 
-5.679579 18.202955 -22.158113 -0.207840 -5.902680 6.628532 -32.689858 -11.204557 -33.253525 20.779848 19.261868 93.042775 -0.642366 -9.362246 9.537888 1.193300 -6.931700 -19.513300 43.268343 23.250820 -22.486699 -9.688476 -13.785174 50.365585 -2.603629 1.383023 -36.173790 -0.411600 4.118200 -11.409300 -11.385620 -10.735859 6.707375 -25.505762 -4.753811 3.762241 -1.799036 29.111045 6.002585 -1.854100 14.020900 7.558000 -84.973576 19.903462 -6.518272 22.319716 -30.145297 -3.944301 0.753152 4.634331 -4.621215 -7.125000 0.000000 0.000000 98.535285 5.615422 48.189068 -16.454653 24.109248 -2.718943 -0.957570 1.080079 3.333579 7.125000 0.000000 0.000000 
-5.720319 18.211532 -22.073463 -0.447759 -5.667272 6.699904 -32.232503 -10.797636 -34.816906 21.166197 19.358559 94.162300 -0.810796 -9.876538 8.670091 0.917200 -6.102200 -17.081200 43.877669 22.979354 -21.751539 -9.635490 -13.683500 50.032798 -2.671794 1.192156 -36.254824 -0.395500 4.037900 -11.183300 -11.359302 -10.698373 6.575269 -25.631976 -4.777229 3.568781 -1.547669 29.055749 6.382606 -1.776200 14.011100 7.619400 -85.285719 20.176245 -6.900767 22.413162 -30.254849 -3.979691 0.696442 4.560094 -3.884909 -7.125000 0.000000 0.000000 98.587871 5.521550 48.281356 -16.904562 24.761996 -2.884317 -0.989239 1.118596 4.790571 7.125000 0.000000 0.000000 
-5.758169 18.233907 -21.980795 -0.897984 -5.450453 6.795298 -31.539414 -10.642996 -37.079969 21.488197 19.516348 95.177727 -0.802646 -9.566077 7.708124 0.919600 -6.109800 -17.103400 44.754072 22.603490 -20.772322 -9.546993 -13.534945 49.533895 -2.765595 1.046622 -36.468871 -0.396800 4.044600 -11.202100 -11.252125 -10.659898 6.370773 -25.779714 -4.812851 3.258409 -1.221303 28.968016 6.746686 -1.690700 13.991900 7.625200 -85.767144 20.755731 -7.216798 22.722687 -30.632107 -4.104022 0.624015 4.538553 -3.524863 -7.125000 0.000000 0.000000 98.379842 4.924667 49.015877 -17.537441 25.638477 -3.131429 -1.007680 1.065950 4.626709 7.125000 0.000000 0.000000 
-5.793316 18.248077 -21.889712 -1.034252 -5.247954 6.791407 -31.315289 -10.455846 -38.599600 21.781187 19.615278 96.077356 -0.839650 -9.390651 6.386677 0.644700 -5.136600 -14.298600 45.271914 22.100995 -19.855736 -9.491302 -13.387653 49.133292 -2.827409 1.137237 -36.760756 -0.348900 3.795000 -10.500700 -11.282174 -10.581463 6.135285 -25.964528 -4.840263 2.966573 -0.913974 28.845357 7.080791 -1.632200 13.961300 7.631500 -86.165464 21.457278 -7.379404 23.089345 -31.072281 -4.257081 0.613247 4.542158 -3.263570 -7.125000 0.000000 0.000000 98.439981 4.841721 50.047705 -17.828049 26.065354 -3.260718 -1.016618 0.977465 3.434816 7.125000 0.000000 0.000000 
-5.826131 18.271943 -21.804969 -1.081276 -4.907503 6.715924 -31.270115 -10.487498 -40.428597 21.984785 19.730991 96.683111 -0.928856 -9.530809 5.095231 0.866700 -5.936200 -16.599500 45.723181 21.262898 -18.852145 -9.431889 -13.189439 48.577225 -2.914244 1.105485 -37.061573 -0.321300 3.643500 -10.075900 -11.390057 -10.570639 6.076793 -26.205617 -4.886919 2.763260 -0.784346 28.704613 7.427744 -1.598900 13.907300 7.736500 -86.368467 21.804271 -7.582821 23.305689 -31.341080 -4.349323 0.646002 4.511936 -2.932767 -7.125000 0.000000 0.000000 98.674037 4.917739 50.781241 -18.108851 26.494288 -3.387188 -1.028010 0.912628 2.640627 7.125000 0.000000 0.000000 
